<svg xmlns="http://www.w3.org/2000/svg" version="1" viewBox="0 0 24 24" enable-background="new 0 0 24 24" style="fill: rgb(102, 102, 102);">
    <path d="M 11.90625 2 C 8.20625 2.1 5.1 5.0875 5 8.6875 C 4.9 11.0875 6.0125 13.29375 7.8125 14.59375 C 8.6125 15.19375 9 16.1 9 17 L 15 17 C 15 16.1 15.39375 15.19375 16.09375 14.59375 C 17.89375 13.39375 19 11.3 19 9 C 19 5.1 15.80625 1.9 11.90625 2 z M 9 18 L 9 19 C 9 20.16875 9.6260498 20.672241 10.5625 20.875 C 10.743056 21.5 11.333333 22 12 22 C 12.666667 22 13.256944 21.5 13.4375 20.875 C 14.37395 20.672241 15 20.16875 15 19 L 15 18 L 9 18 z"/>
</svg>