<svg xmlns="http://www.w3.org/2000/svg" version="1" viewBox="0 0 24 24" enable-background="new 0 0 24 24">
    <path style="text-indent:0;text-align:start;line-height:normal;text-transform:none;block-progression:tb;-inkscape-font-specification:Bitstream Vera Sans" d="M 7 2 C 6.1 2 5.29375 2.6 5.09375 3.5 L 3.09375 11.5 C 2.79375 12.8 3.7 14 5 14 L 9.0625 14 C 9.2658421 16.96365 10.279525 17.372369 10.75 19 L 7 19 L 7 20 L 5 20 L 5 22 L 19 22 L 19 20 L 17 20 L 17 19 L 13.25 19 C 13.720475 17.372369 14.734158 16.96365 14.9375 14 L 19 14 C 20.3 14 21.30625 12.8 20.90625 11.5 L 18.90625 3.5 C 18.70625 2.6 17.9 2 17 2 L 7 2 z M 7 4 L 17 4 L 19 12 L 5 12 L 7 4 z" color="#000" overflow="visible" enable-background="accumulate" font-family="Bitstream Vera Sans"></path>
</svg>