<svg xmlns="http://www.w3.org/2000/svg" viewBox="0 0 24 24">
    <path style="text-indent:0;text-align:start;line-height:normal;text-transform:none;block-progression:tb;-inkscape-font-specification:Sans" d="M 12 2 C 7.593562 2 4 5.593562 4 10 C 4 12.361761 5.1935892 13.980612 6.21875 15.21875 C 7.2439108 16.456888 8 17.319637 8 18.3125 L 8 19 L 8 20 C 8 21.105 8.895 22 10 22 L 10.28125 22 C 10.627293 22.596896 11.260396 23 12 23 C 12.739604 23 13.372707 22.596896 13.71875 22 L 14 22 C 15.105 22 16 21.105 16 20 L 16 18.3125 C 16 17.341414 16.755847 16.494199 17.78125 15.25 C 18.806653 14.005801 20 12.356731 20 10 C 20 5.593562 16.406438 2 12 2 z M 12 4 C 15.325562 4 18 6.674438 18 10 C 18 11.699269 17.193347 12.786199 16.21875 13.96875 C 15.306492 15.075661 14.238005 16.295227 14.09375 18 L 9.90625 18 C 9.7618582 16.285639 8.6937346 15.070803 7.78125 13.96875 C 6.8064108 12.791388 6 11.706239 6 10 C 6 6.674438 8.674438 4 12 4 z M 10.21875 6.78125 L 8.78125 8.21875 L 10.5625 10 L 8.78125 11.78125 L 10.21875 13.21875 L 12 11.4375 L 13.78125 13.21875 L 15.21875 11.78125 L 13.4375 10 L 15.21875 8.21875 L 13.78125 6.78125 L 12 8.5625 L 10.21875 6.78125 z" color="#000" overflow="visible" font-family="Sans"></path>
</svg>