<svg xmlns="http://www.w3.org/2000/svg" viewBox="0 0 24 24">
    <path style="text-indent:0;text-align:start;line-height:normal;text-transform:none;block-progression:tb;-inkscape-font-specification:Sans" d="M 12 2 C 7.593562 2 4 5.593562 4 10 C 4 12.361761 5.1935892 13.980612 6.21875 15.21875 C 7.2439108 16.456888 8 17.319637 8 18.3125 L 8 19 L 8 20 C 8 21.105 8.895 22 10 22 L 10.28125 22 C 10.627293 22.596896 11.260396 23 12 23 C 12.739604 23 13.372707 22.596896 13.71875 22 L 14 22 C 15.105 22 16 21.105 16 20 L 16 18.3125 C 16 17.341414 16.755847 16.494199 17.78125 15.25 C 18.806653 14.005801 20 12.356731 20 10 C 20 5.593562 16.406438 2 12 2 z M 12 4 C 15.325562 4 18 6.674438 18 10 C 18 11.699269 17.193347 12.786199 16.21875 13.96875 C 15.306492 15.075661 14.238005 16.295227 14.09375 18 L 9.90625 18 C 9.7618582 16.285639 8.6937346 15.070803 7.78125 13.96875 C 6.8064108 12.791388 6 11.706239 6 10 C 6 6.674438 8.674438 4 12 4 z M 2.75 4.15625 C 2.3587525 4.1591633 2.0028967 4.3970359 1.84375 4.78125 C 1.6315544 5.2935356 1.8627145 5.8815544 2.375 6.09375 C 2.8872856 6.3059456 3.4753044 6.0435356 3.6875 5.53125 C 3.8996956 5.0189645 3.6685356 4.4309456 3.15625 4.21875 C 3.0281786 4.1657011 2.8804158 4.1552789 2.75 4.15625 z M 21.3125 4.15625 C 21.182084 4.1552789 21.065571 4.1657011 20.9375 4.21875 C 20.425214 4.4309457 20.162804 5.0189645 20.375 5.53125 C 20.587196 6.0435356 21.175214 6.3059457 21.6875 6.09375 C 22.199786 5.8815543 22.462196 5.2935356 22.25 4.78125 C 22.090853 4.3970359 21.703748 4.1591633 21.3125 4.15625 z M 2 9 C 1.4455062 9 1 9.4455061 1 10 C 1 10.554494 1.4455062 11 2 11 C 2.5544939 11 3 10.554494 3 10 C 3 9.4455061 2.5544939 9 2 9 z M 22 9 C 21.447715 9 21 9.4477153 21 10 C 21 10.552285 21.447715 11 22 11 C 22.552285 11 23 10.552285 23 10 C 23 9.4477153 22.552285 9 22 9 z M 21.21875 13.8125 C 20.829061 13.815402 20.471013 14.054816 20.3125 14.4375 C 20.10115 14.947744 20.333505 15.53865 20.84375 15.75 C 21.353994 15.96135 21.9449 15.728994 22.15625 15.21875 C 22.3676 14.708505 22.135244 14.1176 21.625 13.90625 C 21.497439 13.853412 21.348646 13.811533 21.21875 13.8125 z M 2.78125 13.84375 C 2.6508342 13.842779 2.5030714 13.853201 2.375 13.90625 C 1.8627144 14.118446 1.6315543 14.706464 1.84375 15.21875 C 2.0559453 15.731035 2.6439644 15.993446 3.15625 15.78125 C 3.6685355 15.569054 3.8996953 14.981035 3.6875 14.46875 C 3.5283532 14.084536 3.1724975 13.846663 2.78125 13.84375 z" color="#000" overflow="visible" font-family="Sans"></path>
</svg>