<svg xmlns="http://www.w3.org/2000/svg" viewBox="0 0 24 24" enable-background="new 0 0 24 24">
    <path d="M 4.75 3 C 4.4775391 3.0240234 4.225 3.125 4 3.3125 L 2.5 4.59375 C 1.9 5.09375 1.80625 5.99375 2.40625 6.59375 L 2.84375 7.15625 L 2.5 9.78125 L 4.5 10.03125 L 4.78125 7.9375 L 6.875 6.1875 L 8.90625 6.40625 L 9.09375 4.40625 L 6.53125 4.125 L 6 3.5 C 5.6875 3.125 5.2041016 2.9599609 4.75 3 z M 9.90625 7.59375 L 8.6875 8.6875 L 17.71875 17.1875 C 16.881282 17.060993 15.966498 17 15 17 C 12.583754 17 10.445451 17.428746 9.1875 18.09375 L 6.5 10.5 L 5.1875 11.5 L 8 19.8125 L 8.0625 19.8125 C 8.5004163 21.042861 11.436038 22 15 22 C 18.865993 22 22 20.880712 22 19.5 C 22 19.212097 21.844504 18.944892 21.59375 18.6875 L 21.4375 18.53125 C 21.427396 18.522719 21.41661 18.508483 21.40625 18.5 L 9.90625 7.59375 z"></path>
</svg>