<?xml version="1.0"?>
<svg width="744.09448819" height="1052.3622047" xmlns="http://www.w3.org/2000/svg">
 <defs>
  <filter color-interpolation-filters="sRGB" x="-0.009908" y="-0.015212" width="1.0198" height="1.0304" id="filter4727">
   <feGaussianBlur stdDeviation="1.014956" id="feGaussianBlur4729"/>
  </filter>
  <radialGradient r="9.6106" gradientTransform="matrix(-.14948 -2.1097 2.5869 -.18329 -817.13 882.51)" cx="193.04" cy="401.65" gradientUnits="userSpaceOnUse" id="radialGradient4664">
   <stop offset="0" id="stop4660"/>
   <stop offset="1" stop-color="#babdb6" id="stop4662"/>
  </radialGradient>
  <radialGradient r="8.0723" gradientTransform="matrix(-.51349 .93288 -3.0679 -1.6886 1495 885.68)" cx="190.47" cy="396.09" gradientUnits="userSpaceOnUse" id="radialGradient4672">
   <stop offset="0" id="stop4668"/>
   <stop offset="1" stop-color="#fff" id="stop4670"/>
  </radialGradient>
 </defs>
 <g>
  <title>background</title>
  <rect fill="none" id="canvas_background" height="402" width="582" y="-1" x="-1"/>
 </g>
 <g>
  <title>Layer 1</title>
  <g id="layer1">
   <g stroke="null" id="g4677">
    <g stroke="null" id="g4911">
     <circle stroke="#555753" fill="#ffffff" r="369.789978" cx="372.550005" cy="500.680017" stroke-linecap="round" fill-rule="evenodd" stroke-linejoin="round" id="circle3798"/>
     <g stroke="#000" stroke-linecap="round" fill-rule="evenodd" stroke-linejoin="round" id="g3698">
      <rect stroke="null" shape-rendering="auto" x="367.575146" y="149.610491" width="8.431529" height="65.765929" id="use3458"/>
      <rect stroke="null" shape-rendering="auto" x="428.232857" y="-439.59852" width="5" transform="matrix(0,1.6863058805465698,-1.6863058805465698,0,-19.29467807659603,-225.42875410475426) " height="39" id="use3488"/>
      <rect stroke="null" shape-rendering="auto" x="-190.859678" y="-722.961426" width="8.431529" transform="translate(185.6999969482422,130.25) scale(-1) " height="65.765929" id="use3518"/>
      <rect stroke="null" shape-rendering="auto" x="-363.547143" y="-67.18552" width="5" transform="matrix(0,-1.6863058805465698,1.6863058805465698,0,134.39027276693378,-107.91734931048086) " height="39" id="use3548"/>
     </g>
     <g stroke="#000" stroke-linecap="round" fill-rule="evenodd" stroke-linejoin="round" id="g3704">
      <rect stroke="null" shape-rendering="auto" x="391.672857" y="-3.85652" width="5" transform="matrix(1.4603837311044165,0.8431529402732848,-0.8431529402732848,1.4603837311044165,-31.7573712588322,-129.50336710125612) " height="25" id="use3468"/>
      <rect stroke="null" shape-rendering="auto" x="468.362857" y="-216.96852" width="5" transform="matrix(0.8431274656418111,1.460398438593509,-1.460398438593509,0.8431274656418111,-38.377372248189886,-179.13741818212384) " height="25" id="use3478"/>
      <rect stroke="null" shape-rendering="auto" x="282.022857" y="-612.85852" width="5" transform="matrix(-0.8431529402732846,1.4603837311044165,-1.4603837311044165,-0.8431529402732846,20.378112738807452,-255.9782203116186) " height="25" id="use3498"/>
      <rect stroke="null" shape-rendering="auto" x="68.905857" y="-689.55852" width="5" transform="matrix(-1.4603837311044165,0.8431529402732848,-0.8431529402732848,-1.4603837311044165,70.01049052740504,-262.5984387111157) " height="25" id="use3508"/>
      <rect stroke="null" shape-rendering="auto" x="-326.987143" y="-503.20852" width="5" transform="matrix(-1.4603837311044163,-0.8431529402732851,0.8431529402732851,-1.4603837311044163,146.85296594916994,-203.84273631397895) " height="25" id="use3528"/>
      <rect stroke="null" shape-rendering="auto" x="-403.677143" y="-290.09852" width="5" transform="matrix(-0.8431529402732857,-1.460383731104416,1.460383731104416,-0.8431529402732857,153.473184348667,-154.21035852538142) " height="25" id="use3538"/>
      <rect stroke="null" shape-rendering="auto" x="-217.337143" y="105.79148" width="5" transform="matrix(0.8431274656418111,-1.460398438593509,1.460398438593509,0.8431274656418111,94.71903975890375,-77.36853149422188) " height="25" id="use3558"/>
      <rect stroke="null" shape-rendering="auto" x="-4.220143" y="182.49148" width="5" transform="matrix(1.4603837311044165,-0.8431529402732848,0.8431529402732848,1.4603837311044165,45.085104162932694,-70.74766470411944) " height="25" id="use3568"/>
     </g>
     <g stroke="null" fill="#888a85" fill-rule="evenodd" id="g3730"/>
     <g stroke="null" fill="#a40000" id="g4674">
      <path stroke="null" d="m638.509094,496.245026q3.983826,1.342438 5.932617,4.416962q1.948669,3.031311 1.948669,14.290039q0,8.357544 -1.905334,12.990967q-1.905334,4.590149 -6.582214,7.015198q-4.676758,2.381775 -11.995056,2.381775q-8.31427,0 -13.077637,-2.771423q-4.720093,-2.814758 -6.235535,-6.842102q-1.472412,-4.070496 -1.472412,-14.073608l0,-5.542847l17.493774,0l0,11.388855q0,4.546875 0.519653,5.802551q0.562988,1.212524 2.424927,1.212524q2.035217,0 2.684753,-1.559021q0.649536,-1.558838 0.649536,-8.140869l0,-4.849945q0,-4.027313 -0.909302,-5.889313t-2.684814,-2.424896q-1.775513,-0.606323 -6.885193,-0.692871l0,-10.1763q6.235657,0 7.708069,-0.476349q1.472351,-0.476318 2.121887,-2.078644q0.649536,-1.602203 0.649536,-5.023102l0,-3.897308q0,-3.680878 -0.779419,-4.849976q-0.736206,-1.16922 -2.33844,-1.16922q-1.818665,0 -2.511536,1.255768q-0.649536,1.212433 -0.649536,5.239655l0,5.75943l-17.493774,0l0,-5.975891q0,-10.046387 4.590149,-13.554047q4.590149,-3.550873 14.593323,-3.550873q12.514709,0 16.974304,4.893311q4.460327,4.893311 4.460327,13.597382q0,5.889313 -1.602234,8.53064q-1.602234,2.598236 -5.629395,4.763336l0.000305,0.000214zm-542.855614,21.08902l17.493752,0q0,4.893311 0.12989,6.192322q0.129921,1.255859 1.039299,2.121826q0.95269,0.866211 2.554909,0.866211q1.342415,0 2.208572,-0.822754q0.866074,-0.822754 0.952682,-2.121887q0.129921,-1.299072 0.129921,-5.239746l0,-11.172302q-1.29911,2.81488 -3.8974,4.243774q-2.598259,1.385742 -6.452148,1.385742q-4.806648,0 -8.487518,-2.598297t-4.676811,-6.235535q-0.995972,-3.637543 -0.995972,-9.829956l0,-5.585999q0,-7.361542 0.562943,-10.95575q0.606255,-3.594177 3.031296,-6.625519q2.424911,-3.074432 6.712006,-4.763306t9.959816,-1.688873q7.015221,0 11.518661,1.948761q4.503616,1.948761 6.971863,5.629303q2.468246,3.637543 2.857956,7.664856q0.389725,4.027222 0.389725,15.589172l0,9.743286q0,12.514862 -0.34642,16.758575q-0.346436,4.200378 -3.031311,7.967773q-2.641418,3.767456 -7.188385,5.672791q-4.546768,1.861938 -10.522713,1.861938q-7.404915,0 -12.124878,-2.381653q-4.676788,-2.381714 -6.755333,-6.712036q-2.035194,-4.330444 -2.035194,-10.912415l0.000793,-0.000305zm17.493752,-21.868164q0,4.416992 1.125885,5.456299q1.169189,1.039337 2.381737,1.039337q1.818695,0 2.641418,-1.299103q0.866081,-1.34256 0.866081,-5.196442l0,-12.687927q0,-4.633453 -0.822754,-6.062439q-0.779465,-1.428986 -2.641441,-1.428986q-1.125885,0 -2.338402,1.125885q-1.212471,1.08255 -1.212471,5.932526l0,13.121063l-0.000053,-0.000214zm279.640091,224.90271l-17.493744,0q0,-4.893433 -0.129822,-6.14917q-0.08667,-1.299133 -1.039337,-2.165222q-0.909332,-0.866028 -2.511536,-0.866028q-1.342407,0 -2.208405,0.822693q-0.866058,0.822754 -0.995972,2.121887q-0.129852,1.299194 -0.129852,5.239746l0,11.172302q1.342438,-2.814758 3.940582,-4.200439q2.598236,-1.429016 6.408936,-1.429016q4.806702,0 8.487518,2.598206t4.676819,6.235657q0.996002,3.637573 0.996002,9.829834l0,5.585999q0,7.361633 -0.562958,10.95575q-0.562927,3.594238 -3.031311,6.668762q-2.424896,3.031189 -6.712036,4.720093q-4.243713,1.688904 -9.916473,1.688904q-7.058502,0 -11.562012,-1.948792q-4.503571,-1.948669 -6.971863,-5.585999q-2.424866,-3.680847 -2.857941,-7.708191q-0.389709,-4.027161 -0.389709,-15.632507l0,-9.699951q0,-12.514832 0.346436,-16.715149q0.38974,-4.243774 3.031311,-8.011169q2.641388,-3.767334 7.188385,-5.629456q4.590088,-1.905334 10.566071,-1.905334q7.361511,0 12.081665,2.381775t6.755371,6.711975q2.035217,4.330444 2.035217,10.912415l-0.001343,0.000427zm-17.493744,21.86792q0,-3.723999 -0.822754,-5.109863q-0.822723,-1.38562 -2.684784,-1.38562q-1.818665,0 -2.684753,1.342407q-0.822723,1.299133 -0.822723,5.153015l0,12.687927q0,4.633423 0.779419,6.062439q0.822784,1.428955 2.684723,1.428955q1.125946,0 2.33844,-1.08252q1.212494,-1.125916 1.212494,-5.975952l0,-13.120972l-0.000061,0.000183zm32.759888,-455.639801l0,11.951691l-38.496704,0l0,-10.003174q17.104218,-27.974182 20.309875,-34.59964q3.247833,-6.668655 3.247833,-10.392853q0,-2.857986 -0.995941,-4.243759q-0.952728,-1.429001 -2.944672,-1.429001t-2.987976,1.558884q-0.952667,1.558945 -0.952667,6.192474l0,6.668655l-15.675873,0l0,-2.554932q0,-5.889206 0.606201,-9.266922q0.606293,-3.420975 2.987946,-6.712021t6.192505,-4.979767t9.137024,-1.688889q10.436249,0 15.762451,5.196381q5.369537,5.15303 5.369537,13.077667q0,6.019043 -3.031311,12.731216q-2.987946,6.712036 -17.711243,28.49353l19.183411,0l-0.000397,0.000458zm-44.515137,-58.157333l0,70.108139l-17.493713,0l0,-37.587708q0,-8.141037 -0.38974,-9.786636q-0.389709,-1.645554 -2.165253,-2.468277q-1.732147,-0.866043 -7.794586,-0.866043l-1.732147,0l0,-8.184357q12.687958,-2.728104 19.269409,-11.215576l10.306183,0l-0.000153,0.000458z" fill="#666666" id="path4664"/>
     </g>
     <circle stroke="null" fill="url(#radialGradient4664)" r="16.206404" cy="500.680017" fill-rule="evenodd" cx="371.550005" id="path3796"/>
     <path stroke="null" filter="url(#filter4727)" fill-rule="evenodd" d="m561.765259,353.499176c2.445679,3.119019 0.140869,5.743256 -1.35498,6.939545l-203.95871,163.140015c-2.313934,1.850647 -6.177612,0.788879 -8.623077,-2.330078c-2.445618,-3.119019 -2.555084,-7.124512 -0.20575,-8.930115l207.078369,-159.1586c1.518738,-1.167267 4.61676,-2.779572 7.062439,0.339539l0.001709,-0.000305zm-412.200607,-95.394287c2.910233,-2.690842 6.499908,0.24472 8.252808,2.113281l239.033859,254.817657c2.711792,2.890625 2.51413,7.41925 -0.396088,10.110107s-7.440491,2.533508 -10.110138,-0.396118l-235.323959,-258.240875c-1.725769,-1.89386 -4.371429,-5.702026 -1.461105,-8.392883l0.004623,-0.011169z" id="path4702"/>
     <path stroke="null" fill="#000000" fill-rule="evenodd" d="m147.170135,258.003784c2.910217,-2.690857 6.499847,0.244598 8.252792,2.11322l239.033859,254.817688c2.711731,2.890686 2.51413,7.41925 -0.396088,10.110107s-7.440521,2.533447 -10.110138,-0.396179l-235.307068,-258.240845c-1.725784,-1.893921 -4.371445,-5.702057 -1.461105,-8.392883l-0.012253,-0.011108z" id="rect3837"/>
     <path stroke="null" fill="#000000" fill-rule="evenodd" d="m559.370728,353.414978c2.445679,3.119019 0.140808,5.743164 -1.35498,6.939453l-203.95871,163.140015c-2.313934,1.850647 -6.177612,0.789001 -8.623077,-2.330078c-2.445679,-3.119019 -2.555084,-7.124512 -0.20575,-8.930115l207.078369,-159.1586c1.518738,-1.167175 4.61676,-2.779572 7.062439,0.339539l0.001709,-0.000214z" id="path3840"/>
     <circle stroke="url(#radialGradient4672)" fill="#7f0000" r="12.769208" cx="371.550005" cy="500.680017" stroke-linecap="round" fill-rule="evenodd" stroke-linejoin="round" id="circle3842"/>
    </g>
    <g stroke="null" id="g5123"/>
   </g>
  </g>
 </g>
</svg>